<?xml version="1.0" encoding="iso-8859-1"?>
<!-- Generator: Adobe Illustrator 19.0.0, SVG Export Plug-In . SVG Version: 6.00 Build 0)  -->
<svg version="1.1" id="Layer_1" xmlns="http://www.w3.org/2000/svg" xmlns:xlink="http://www.w3.org/1999/xlink" x="0px" y="0px"
	 viewBox="0 0 512.002 512.002" style="enable-background:new 0 0 512.002 512.002;" xml:space="preserve">
<path style="fill:#D4A8B4;" d="M303.871,234.67c23.231-24.297,22.88-63.04-0.769-86.931c-24.332-24.581-63.985-24.658-88.412-0.23
	c-1.81,1.81-3.486,3.706-5.027,5.671c-4.685,5.977-4.192,14.504,1.177,19.872l19.235,19.235
	c-11.032,6.373-28.061,16.307-35.245,21.017c-4.499,2.95-5.166,9.255-1.673,12.748l31.173,31.173
	c3.493,3.493,9.796,2.826,12.748-1.673c4.71-7.185,14.645-24.213,21.017-35.245l19.235,19.235c5.371,5.371,13.901,5.86,19.878,1.173
	C299.536,238.889,301.764,236.873,303.871,234.67z"/>
<g>
	<path style="fill:#3C1146;" d="M229.861,272.763c-5.688,0-10.997-2.175-14.947-6.124l-31.174-31.173
		c-4.481-4.482-6.672-10.746-6.009-17.185c0.68-6.601,4.251-12.473,9.798-16.11c4.506-2.954,12.517-7.761,20.909-12.693
		l-7.014-7.014c-10.109-10.108-11.073-26.229-2.243-37.496c1.877-2.395,3.927-4.708,6.092-6.874
		c14.291-14.291,33.294-22.162,53.504-22.162c20.357,0,39.458,7.97,53.782,22.44c28.55,28.845,28.968,76.169,0.929,105.496
		c-2.508,2.625-5.225,5.089-8.074,7.322c-4.971,3.899-11.186,6.046-17.499,6.046c-0.001,0-0.001,0-0.001,0
		c-7.559,0-14.663-2.942-20.003-8.283l-7.015-7.014c-4.941,8.408-9.752,16.427-12.693,20.911
		C244.14,269.057,237.282,272.763,229.861,272.763z M207.182,221.253l21.945,21.945c3.966-6.45,9.971-16.624,17.442-29.552
		c2.07-3.582,5.687-5.998,9.79-6.539c4.1-0.538,8.222,0.859,11.149,3.786l19.233,19.235c0.401,0.399,0.861,0.485,1.179,0.485l0,0
		c0.394,0,0.755-0.126,1.073-0.375c1.853-1.452,3.621-3.055,5.254-4.767c18.171-19.004,17.898-49.673-0.607-68.367
		c-9.285-9.381-21.664-14.547-34.86-14.547c-13.1,0-25.415,5.101-34.678,14.365c-1.411,1.41-2.744,2.913-3.962,4.469
		c-0.536,0.684-0.487,1.649,0.11,2.248l19.235,19.236c2.926,2.926,4.325,7.046,3.786,11.149c-0.54,4.103-2.958,7.721-6.54,9.791
		C223.818,211.274,213.642,217.28,207.182,221.253z"/>
	<path style="fill:#3C1146;" d="M280.389,438.793L280.389,438.793c-7.222,0-13.895-3.606-17.856-9.646
		c-2.642-4.03-6.865-11.052-11.258-18.513l-5.707,5.707c-5.149,5.149-11.998,7.985-19.284,7.985c-6.08,0-12.067-2.069-16.86-5.824
		c-2.259-1.772-4.44-3.703-6.483-5.746c-13.542-13.542-20.971-31.542-20.921-50.689c0.049-19.144,7.572-37.106,21.181-50.579
		c13.416-13.28,31.262-20.594,50.253-20.594c18.507,0,36.024,7.002,49.321,19.717c2.477,2.37,4.803,4.933,6.908,7.619
		c8.516,10.864,7.589,26.405-2.155,36.15l-5.707,5.707c7.461,4.394,14.486,8.617,18.513,11.258
		c5.398,3.541,8.872,9.255,9.533,15.678c0.644,6.273-1.491,12.378-5.86,16.747l-29.048,29.05
		C291.106,436.671,285.932,438.793,280.389,438.793z M254.079,375.691c0.578,0,1.157,0.037,1.739,0.113
		c4.101,0.539,7.721,2.957,9.79,6.54c6.583,11.398,11.952,20.502,15.638,26.538l18.825-18.826
		c-6.033-3.686-15.137-9.052-26.538-15.636c-3.582-2.07-6-5.688-6.54-9.791c-0.539-4.103,0.86-8.223,3.786-11.149l17.925-17.925
		c0.238-0.238,0.25-0.615,0.029-0.897c-1.325-1.689-2.79-3.304-4.354-4.8c-8.321-7.957-19.303-12.338-30.923-12.338
		c-11.929,0-23.124,4.578-31.523,12.893c-8.538,8.451-13.256,19.718-13.287,31.725c-0.031,12.009,4.629,23.299,13.119,31.791
		c1.287,1.286,2.664,2.505,4.084,3.621c0.048,0.037,0.196,0.153,0.435,0.153c0.27,0,0.407-0.136,0.458-0.188l17.925-17.925
		C247.179,377.076,250.572,375.691,254.079,375.691z"/>
	<path style="fill:#3C1146;" d="M256.065,503.498c-11.211,0-22.601-2.266-33.529-6.996c-6.925-2.987-13.4-6.906-19.229-11.644
		c-7.016-5.686-13.088-12.532-18.035-20.337L72.434,286.305l-50.223-78.259c-9.07-14.139-9.063-32.298,0.017-46.262
		C73.858,82.209,161.255,34.694,256.006,34.694c94.758,0,182.15,47.515,233.773,127.101c9.071,13.952,9.079,32.111,0.011,46.248
		l-29.952,46.687c-3.97,6.186-12.206,7.987-18.392,4.016c-6.189-3.97-7.987-12.205-4.018-18.392l29.952-46.686
		c3.429-5.345,3.457-12.163,0.071-17.371c-46.702-72-125.744-114.978-211.444-114.978c-85.695,0-164.743,42.978-211.451,114.967
		c-3.393,5.218-3.365,12.037,0.064,17.383l50.265,78.327l112.879,178.277c3.393,5.355,7.54,10.037,12.322,13.911
		c3.944,3.207,8.317,5.852,13.011,7.877c22.324,9.663,53.865,5.25,70.986-21.866l78.113-123.825l6.773-10.57
		c3.966-6.189,12.201-7.993,18.391-4.026c6.19,3.967,7.993,12.201,4.026,18.391l-6.723,10.49l-78.064,123.747
		C310.784,489.449,283.979,503.498,256.065,503.498z"/>
</g>
<path style="fill:#D4A8B4;" d="M40.286,210.305C78.81,129.868,161.02,74.179,256,74.179s177.19,55.689,215.714,136.126
	l21.944-32.535c6.83-10.128,6.78-23.473-0.314-33.419C440.463,70.235,353.783,21.815,256,21.815S71.536,70.235,18.658,144.353
	c-7.095,9.944-7.146,23.291-0.314,33.419L40.286,210.305z"/>
<path style="fill:#3C1146;" d="M471.716,223.617c-0.325,0-0.651-0.012-0.977-0.036c-4.76-0.35-8.97-3.222-11.03-7.527
	C422.304,137.955,342.345,87.49,256.001,87.49S89.695,137.956,52.292,216.054c-2.061,4.305-6.27,7.177-11.03,7.527
	c-4.744,0.353-9.344-1.876-12.012-5.833L7.307,185.214c-9.928-14.719-9.722-34.248,0.515-48.593
	c27.648-38.752,64.46-70.947,106.457-93.105C157.692,20.61,206.7,8.504,256.001,8.504s98.309,12.107,141.722,35.012
	c41.997,22.158,78.809,54.353,106.457,93.105c10.236,14.345,10.443,33.874,0.514,48.593l-21.941,32.533
	C480.265,221.434,476.12,223.617,471.716,223.617z M256,60.867c48.461,0,95.572,13.838,136.234,40.019
	c33.18,21.362,60.78,50.015,80.786,83.676l9.601-14.235c3.75-5.559,3.705-12.89-0.115-18.243
	C430.257,78.849,345.582,35.128,256.001,35.128S81.745,78.85,29.497,152.084c-3.819,5.353-3.865,12.684-0.116,18.243l9.602,14.236
	c20.004-33.661,47.605-62.314,80.786-83.676C160.428,74.705,207.538,60.867,256,60.867z"/>
<g>
</g>
<g>
</g>
<g>
</g>
<g>
</g>
<g>
</g>
<g>
</g>
<g>
</g>
<g>
</g>
<g>
</g>
<g>
</g>
<g>
</g>
<g>
</g>
<g>
</g>
<g>
</g>
<g>
</g>
</svg>
